<svg width="119" height="22" viewBox="0 0 119 22" fill="none" xmlns="http://www.w3.org/2000/svg">
<path d="M6.35369 21L0.526989 0.636363H5.23011L8.60085 14.7855H8.76989L12.4886 0.636363H16.5156L20.2244 14.8153H20.4034L23.7741 0.636363H28.4773L22.6506 21H18.4545L14.5767 7.68608H14.4176L10.5497 21H6.35369ZM32.2408 21H27.6271L34.657 0.636363H40.2053L47.2251 21H42.6115L37.5107 5.28977H37.3516L32.2408 21ZM31.9524 12.9957H42.8501V16.3565H31.9524V12.9957ZM56.8949 21H49.6761V0.636363H56.9545C59.0028 0.636363 60.7661 1.04403 62.2443 1.85938C63.7225 2.66809 64.8594 3.83144 65.6548 5.34943C66.4569 6.86742 66.858 8.68371 66.858 10.7983C66.858 12.9195 66.4569 14.7424 65.6548 16.267C64.8594 17.7917 63.7159 18.9616 62.2244 19.777C60.7396 20.5923 58.9631 21 56.8949 21ZM53.9815 17.3111H56.7159C57.9886 17.3111 59.0592 17.0857 59.9276 16.6349C60.8026 16.1776 61.4588 15.4716 61.8963 14.517C62.3404 13.5559 62.5625 12.3163 62.5625 10.7983C62.5625 9.29356 62.3404 8.06392 61.8963 7.10938C61.4588 6.15483 60.8059 5.45218 59.9375 5.00142C59.0691 4.55066 57.9986 4.32528 56.7259 4.32528H53.9815V17.3111Z" fill="#FF7EC4"/>
<path d="M72.4435 21.2585C71.7873 21.2585 71.2238 21.0265 70.7532 20.5625C70.2892 20.0919 70.0572 19.5284 70.0572 18.8722C70.0572 18.2225 70.2892 17.6657 70.7532 17.2017C71.2238 16.7377 71.7873 16.5057 72.4435 16.5057C73.0799 16.5057 73.6367 16.7377 74.114 17.2017C74.5913 17.6657 74.8299 18.2225 74.8299 18.8722C74.8299 19.3097 74.7172 19.7107 74.4918 20.0753C74.2731 20.4332 73.9847 20.7216 73.6268 20.9403C73.2688 21.1525 72.8744 21.2585 72.4435 21.2585ZM96.3544 7.76562H91.9993C91.9197 7.20218 91.7573 6.7017 91.5121 6.2642C91.2668 5.82007 90.9519 5.44223 90.5675 5.13068C90.183 4.81913 89.7389 4.58049 89.2351 4.41477C88.7379 4.24905 88.1977 4.16619 87.6143 4.16619C86.5604 4.16619 85.6423 4.42803 84.8601 4.9517C84.0779 5.46875 83.4714 6.22443 83.0405 7.21875C82.6096 8.20644 82.3942 9.40625 82.3942 10.8182C82.3942 12.2699 82.6096 13.4896 83.0405 14.4773C83.478 15.465 84.0878 16.2107 84.87 16.7145C85.6522 17.2183 86.5571 17.4702 87.5845 17.4702C88.1612 17.4702 88.6948 17.3939 89.1854 17.2415C89.6825 17.089 90.1233 16.867 90.5078 16.5753C90.8923 16.277 91.2105 15.9157 91.4624 15.4915C91.7209 15.0672 91.8999 14.5833 91.9993 14.0398L96.3544 14.0597C96.2417 14.9943 95.96 15.8958 95.5092 16.7642C95.0651 17.6259 94.4652 18.3982 93.7095 19.081C92.9605 19.7571 92.0656 20.294 91.0249 20.6918C89.9908 21.0829 88.8208 21.2784 87.5149 21.2784C85.6986 21.2784 84.0746 20.8674 82.6428 20.0455C81.2176 19.2235 80.0907 18.0336 79.2621 16.4759C78.4401 14.9181 78.0291 13.0322 78.0291 10.8182C78.0291 8.59754 78.4467 6.70833 79.282 5.15057C80.1172 3.5928 81.2507 2.40625 82.6825 1.59091C84.1143 0.768939 85.7251 0.357954 87.5149 0.357954C88.6948 0.357954 89.7886 0.523674 90.7962 0.855113C91.8104 1.18655 92.7086 1.67045 93.4908 2.30682C94.273 2.93655 94.9093 3.70881 95.3999 4.62358C95.897 5.53835 96.2152 6.5857 96.3544 7.76562ZM118.155 10.8182C118.155 13.0388 117.734 14.928 116.892 16.4858C116.057 18.0436 114.917 19.2334 113.472 20.0554C112.033 20.8707 110.416 21.2784 108.619 21.2784C106.81 21.2784 105.186 20.8674 103.747 20.0455C102.309 19.2235 101.172 18.0336 100.337 16.4759C99.5014 14.9181 99.0838 13.0322 99.0838 10.8182C99.0838 8.59754 99.5014 6.70833 100.337 5.15057C101.172 3.5928 102.309 2.40625 103.747 1.59091C105.186 0.768939 106.81 0.357954 108.619 0.357954C110.416 0.357954 112.033 0.768939 113.472 1.59091C114.917 2.40625 116.057 3.5928 116.892 5.15057C117.734 6.70833 118.155 8.59754 118.155 10.8182ZM113.79 10.8182C113.79 9.37973 113.574 8.16667 113.143 7.17898C112.719 6.19129 112.119 5.44224 111.344 4.93182C110.568 4.4214 109.66 4.16619 108.619 4.16619C107.579 4.16619 106.67 4.4214 105.895 4.93182C105.119 5.44224 104.516 6.19129 104.085 7.17898C103.661 8.16667 103.449 9.37973 103.449 10.8182C103.449 12.2566 103.661 13.4697 104.085 14.4574C104.516 15.4451 105.119 16.1941 105.895 16.7045C106.67 17.215 107.579 17.4702 108.619 17.4702C109.66 17.4702 110.568 17.215 111.344 16.7045C112.119 16.1941 112.719 15.4451 113.143 14.4574C113.574 13.4697 113.79 12.2566 113.79 10.8182Z" fill="black"/>
</svg>
